# xmcd
#
# Track frame offsets: 
#        150
#        13248
#        30014
#        49148
#        67355
#        82548
#        94184
#        108873
#        122813
#        135689
#        155495
#        177530
#        197211
#
# Disc length: 2825 seconds
#
# Revision: 1
# Processed by: cddbd v1.5.2PL0 Copyright (c) Steve Scherf et al.
# Submitted via: ExactAudioCopyFreeDBPlugin 1.0
#
DISCID=ab0b070d
DTITLE=Susie Arioli - All The Way
DYEAR=2012
DGENRE=Jazz
TTITLE0=Here's That Rainy Day
TTITLE1=Here's To The Losers
TTITLE2=Time On My Hands
TTITLE3=My Funny Valentine
TTITLE4=Un Jour De Difference
TTITLE5=Come Rain Or Come Shine
TTITLE6=Looking For A Boy
TTITLE7=All The Way
TTITLE8=It's Always You
TTITLE9=When Your Lover Has Gone
TTITLE10=Forgetful
TTITLE11=There's A Lull In My Life
TTITLE12=Time After Time
EXTD=YEAR: 2012
EXTT0=
EXTT1=
EXTT2=
EXTT3=
EXTT4=
EXTT5=
EXTT6=
EXTT7=
EXTT8=
EXTT9=
EXTT10=
EXTT11=
EXTT12=
PLAYORDER=
